# xmcd
#
# Track frame offsets:
#	150
#	14782
#	26987
#	46975
#	63902
#	76735
#	91055
#	106182
#	118662
#	133260
#	145425
#	165515
#	182450
#	195292
#	209602
#	224707
#
# Disc length: 3164 seconds
#
# Revision: 0
# Processed by: cddbd v1.5.2PL0 Copyright (c) Steve Scherf et al.
# Submitted via: audiograbber 1.83.01
#
DISCID=e50c5a10
DTITLE=Various Artist - SC2090
DYEAR=1900
DGENRE=Country
TTITLE0=Marty Stuart and Travis Tritt - Hony Tonkin's What I Do Best
TTITLE1=Garth Brooks - It's Midnight Cinderella
TTITLE2=John Michael Montgomery - Long As I Live
TTITLE3=Brooks and Dunn - My Maria
TTITLE4=George Strait - Fireman, The
TTITLE5=Hal Ketchum - Stay Forever
TTITLE6=Alabama - Maker Said Take Her, The
TTITLE7=Bryan White - So Much For Pretending
TTITLE8=Marty Stuart and Travis Tritt - Hony Tonkin's What I Do Best (Vocals)
TTITLE9=Garth Brooks - It's Midnight Cinderella (Vocals)
TTITLE10=John Michael Montgomery - Long As I Live (Vocals)
TTITLE11=Brooks and Dunn - My Maria (Vocals)
TTITLE12=George Strait - Fireman, The (Vocals)
TTITLE13=Hal Ketchum - Stay Forever (Vocals)
TTITLE14=Alabama - Maker Said Take Her, The (Vocals)
TTITLE15=Bryan White - So Much For Pretending (Vocals)
EXTD=Tracks 9 - 16 Have Demonstration Vocals
EXTT0=
EXTT1=
EXTT2=
EXTT3=
EXTT4=
EXTT5=
EXTT6=
EXTT7=
EXTT8=Demonstration Vocals\n
EXTT9=Demonstration Vocals\n
EXTT10=Demonstration Vocals\n
EXTT11=Demonstration Vocals\n
EXTT12=Demonstration Vocals\n
EXTT13=Demonstration Vocals\n
EXTT14=Demonstration Vocals\n
EXTT15=Demonstration Vocals\n
PLAYORDER=
